<svg viewBox="0 0 16.125 14.625" fill="none" xmlns="http://www.w3.org/2000/svg" xmlns:xlink="http://www.w3.org/1999/xlink" x="0" y="0"><g id="personalcard_2">
<path id="Vector_9" d="M4.3125,0.5005h7.5c1.6365,0 2.5304,0.256 3.043,0.769c0.5126,0.513 0.7695,1.406 0.7695,3.043v6c0,1.637 -0.2569,2.53 -0.7695,3.043c-0.5126,0.513 -1.4065,0.769 -3.043,0.769h-7.5c-1.6365,0 -2.5304,-0.256 -3.043,-0.769c-0.5126,-0.513 -0.7695,-1.406 -0.7695,-3.043v-6c0,-1.637 0.2569,-2.53 0.7695,-3.043c0.5126,-0.513 1.4065,-0.769 3.043,-0.769zM4.3125,0.6245c-0.6801,0 -1.2574,0.032 -1.7344,0.132c-0.4823,0.102 -0.898,0.283 -1.2197,0.605c-0.3217,0.322 -0.5014,0.739 -0.6025,1.221c-0.1,0.476 -0.1309,1.052 -0.1309,1.73v6c0,0.678 0.0309,1.254 0.1309,1.73c0.1011,0.482 0.2808,0.899 0.6025,1.221c0.3217,0.322 0.7374,0.503 1.2197,0.605c0.477,0.1 1.0543,0.132 1.7344,0.132h7.5c0.6801,0 1.2574,-0.032 1.7344,-0.132c0.4823,-0.102 0.898,-0.283 1.2197,-0.605c0.3217,-0.322 0.5014,-0.739 0.6025,-1.221c0.1,-0.476 0.1309,-1.052 0.1309,-1.73v-6c0,-0.678 -0.0309,-1.254 -0.1309,-1.73c-0.1011,-0.482 -0.2808,-0.899 -0.6025,-1.221c-0.3217,-0.322 -0.7374,-0.503 -1.2197,-0.605c-0.477,-0.1 -1.0543,-0.132 -1.7344,-0.132z" fill="currentColor" stroke="currentColor"/>
<path id="Vector_10" d="M9.5625,4.2505h3.75c0.0131,0 0.0287,0.005 0.043,0.019c0.0143,0.014 0.0195,0.03 0.0195,0.043c0,0.013 -0.0052,0.029 -0.0195,0.043c-0.0143,0.014 -0.0299,0.019 -0.043,0.019h-3.75c-0.0131,0 -0.0287,-0.005 -0.043,-0.019c-0.0143,-0.014 -0.0195,-0.03 -0.0195,-0.043c0,-0.013 0.0052,-0.029 0.0195,-0.043c0.0143,-0.014 0.0299,-0.019 0.043,-0.019z" fill="currentColor" stroke="currentColor"/>
<path id="Vector_11" d="M10.3125,7.2505h3c0.0131,0 0.0287,0.005 0.043,0.019c0.0143,0.014 0.0195,0.03 0.0195,0.043c0,0.013 -0.0052,0.029 -0.0195,0.043c-0.0143,0.014 -0.0299,0.019 -0.043,0.019h-3c-0.0131,0 -0.0287,-0.005 -0.043,-0.019c-0.0143,-0.014 -0.0195,-0.03 -0.0195,-0.043c0,-0.013 0.0052,-0.029 0.0195,-0.043c0.0143,-0.014 0.0299,-0.019 0.043,-0.019z" fill="currentColor" stroke="currentColor"/>
<path id="Vector_12" d="M11.8125,10.2505h1.5c0.0131,0 0.0287,0.005 0.043,0.019c0.0143,0.014 0.0195,0.03 0.0195,0.043c0,0.013 -0.0052,0.029 -0.0195,0.043c-0.0143,0.014 -0.0299,0.019 -0.043,0.019h-1.5c-0.0131,0 -0.0287,-0.005 -0.043,-0.019c-0.0143,-0.014 -0.0195,-0.03 -0.0195,-0.043c0,-0.013 0.0052,-0.029 0.0195,-0.043c0.0143,-0.014 0.0299,-0.019 0.043,-0.019z" fill="currentColor" stroke="currentColor"/>
<path id="Vector_13" d="M5.4375,7.3425c-1.0575,0 -1.92,-0.863 -1.92,-1.92c0,-1.058 0.8625,-1.92 1.92,-1.92c1.0575,0 1.92,0.862 1.92,1.92c0,1.057 -0.8625,1.92 -1.92,1.92zM5.4375,4.6275c-0.435,0 -0.795,0.36 -0.795,0.795c0,0.435 0.36,0.795 0.795,0.795c0.435,0 0.795,-0.36 0.795,-0.795c0,-0.435 -0.36,-0.795 -0.795,-0.795z" fill="currentColor"/>
<path id="Vector_14" d="M8.0625,11.1225c-0.285,0 -0.5325,-0.218 -0.5625,-0.51c-0.0825,-0.81 -0.735,-1.463 -1.5525,-1.538c-0.345,-0.03 -0.69,-0.03 -1.035,0c-0.8175,0.075 -1.47,0.72 -1.5525,1.538c-0.03,0.307 -0.3075,0.54 -0.615,0.502c-0.3075,-0.03 -0.5325,-0.307 -0.5025,-0.615c0.135,-1.35 1.2075,-2.422 2.565,-2.542c0.4125,-0.038 0.8325,-0.038 1.245,0c1.35,0.127 2.43,1.2 2.565,2.542c0.03,0.308 -0.195,0.585 -0.5025,0.615c-0.015,0.008 -0.0375,0.008 -0.0525,0.008z" fill="currentColor"/>
</g></svg>