<svg viewBox="0 0 14.25 15" fill="none" xmlns="http://www.w3.org/2000/svg" xmlns:xlink="http://www.w3.org/1999/xlink" x="0" y="0"><g id="element-4_2">
<path id="Vector" d="M9.5479,0.5h3.0292c0.5527,0 0.812,0.108 0.9415,0.229c0.1217,0.115 0.2314,0.34 0.2314,0.846v5.1c0,0.506 -0.1097,0.731 -0.2314,0.846c-0.1295,0.121 -0.3888,0.229 -0.9415,0.229h-3.0292c-0.5527,0 -0.812,-0.108 -0.9415,-0.229c-0.1217,-0.115 -0.2314,-0.34 -0.2314,-0.846v-5.1c0,-0.506 0.1097,-0.731 0.2314,-0.846c0.1295,-0.121 0.3888,-0.229 0.9415,-0.229z" fill="currentColor" stroke="currentColor"/>
<path id="Vector_2" d="M1.6729,7.25h3.0292c0.5527,0 0.812,0.108 0.9415,0.229c0.1217,0.115 0.2314,0.34 0.2314,0.846v5.1c0,0.506 -0.1097,0.731 -0.2314,0.846c-0.1295,0.121 -0.3888,0.229 -0.9415,0.229h-3.0292c-0.5527,0 -0.812,-0.108 -0.9415,-0.229c-0.1217,-0.115 -0.2314,-0.34 -0.2314,-0.846v-5.1l0.0049,-0.177c0.0227,-0.383 0.12,-0.568 0.2265,-0.669c0.1133,-0.106 0.3257,-0.202 0.7471,-0.224z" fill="currentColor" stroke="currentColor"/>
<path id="Vector_3" d="M14.25,13.425v-2.1c0,-1.125 -0.48,-1.575 -1.6725,-1.575h-3.03c-1.1925,0 -1.6725,0.45 -1.6725,1.575v2.1c0,1.125 0.48,1.575 1.6725,1.575h3.03c1.1925,0 1.6725,-0.45 1.6725,-1.575z" fill="currentColor"/>
<path id="Vector_4" d="M6.375,3.675v-2.1c0,-1.125 -0.48,-1.575 -1.6725,-1.575h-3.03c-1.1925,0 -1.6725,0.45 -1.6725,1.575v2.1c0,1.125 0.48,1.575 1.6725,1.575h3.03c1.1925,0 1.6725,-0.45 1.6725,-1.575z" fill="currentColor"/>
</g></svg>