<svg viewBox="0 0 12.3333 10.516" fill="none" xmlns="http://www.w3.org/2000/svg" xmlns:xlink="http://www.w3.org/1999/xlink" x="0" y="0"><g id="Hide">
<path id="Stroke 1" d="M4.6739,6.7449c-0.383,-0.383 -0.617,-0.903 -0.617,-1.486c0,-1.169 0.942,-2.111 2.11,-2.111c0.578,0 1.11,0.234 1.486,0.617" stroke="#D0D5DD" stroke-width="1.5" stroke-linecap="round" stroke-linejoin="round"/>
<path id="Stroke 3" d="M8.2369,5.6329c-0.155,0.86 -0.832,1.539 -1.692,1.695" stroke="#D0D5DD" stroke-width="1.5" stroke-linecap="round" stroke-linejoin="round"/>
<path id="Stroke 5" d="M2.6029,8.8149c-1.058,-0.83 -1.954,-2.044 -2.603,-3.556c0.656,-1.52 1.558,-2.74 2.623,-3.577c1.058,-0.837 2.278,-1.292 3.544,-1.292c1.272,0 2.492,0.461 3.557,1.305" stroke="#D0D5DD" stroke-width="1.5" stroke-linecap="round" stroke-linejoin="round"/>
<path id="Stroke 7" d="M11.1319,3.1609c0.459,0.609 0.862,1.313 1.201,2.097c-1.311,3.038 -3.628,4.868 -6.166,4.868c-0.576,0 -1.143,-0.093 -1.688,-0.275" stroke="#D0D5DD" stroke-width="1.5" stroke-linecap="round" stroke-linejoin="round"/>
<path id="Stroke 9" d="M11.4249,-0.0001l-10.516,10.516" stroke="#D0D5DD" stroke-width="1.5" stroke-linecap="round" stroke-linejoin="round"/>
</g></svg>