<svg viewBox="0 0 17.5425 21.6201" fill="none" xmlns="http://www.w3.org/2000/svg" xmlns:xlink="http://www.w3.org/1999/xlink" x="0" y="0"><g id="notification_2">
<path id="Vector" d="M8.796,1.7201c-3.31,0 -6,2.69 -6,6v2.89c0,0.61 -0.26,1.54 -0.57,2.06l-1.15,1.91c-0.71,1.18 -0.22,2.49 1.08,2.93c4.31,1.44 8.96,1.44 13.27,0c1.21,-0.4 1.74,-1.83 1.08,-2.93l-1.15,-1.91c-0.3,-0.52 -0.56,-1.45 -0.56,-2.06v-2.89c0,-3.3 -2.7,-6 -6,-6z" stroke="#1A1C1E" stroke-width="1.5" stroke-miterlimit="10" stroke-linecap="round"/>
<path id="Vector_2" d="M10.646,2.01c-0.31,-0.09 -0.63,-0.16 -0.96,-0.2c-0.96,-0.12 -1.88,-0.05 -2.74,0.2c0.29,-0.74 1.01,-1.26 1.85,-1.26c0.84,0 1.56,0.52 1.85,1.26z" stroke="#1A1C1E" stroke-width="1.5" stroke-miterlimit="10" stroke-linecap="round" stroke-linejoin="round"/>
<path id="Vector_3" d="M11.796,17.8702c0,1.65 -1.35,3 -3,3c-0.82,0 -1.58,-0.34 -2.12,-0.88c-0.54,-0.54 -0.88,-1.3 -0.88,-2.12" stroke="#1A1C1E" stroke-width="1.5" stroke-miterlimit="10"/>
</g></svg>