<svg viewBox="0 0 14.188 14.544" fill="none" xmlns="http://www.w3.org/2000/svg" xmlns:xlink="http://www.w3.org/1999/xlink" x="0" y="0"><g id="people_8">
<path id="Vector_80" d="M11.0328,4.0992c-0.05,-0.007 -0.1,-0.007 -0.15,0c-1.1,-0.036 -1.97,-0.938 -1.97,-2.046c0,-1.13 0.92,-2.053 2.05,-2.053c1.13,0 2.06,0.916 2.06,2.053c-0.01,1.108 -0.89,2.01 -1.99,2.046z" fill="currentColor"/>
<path id="Vector_81" d="M13.3528,9.0222c-0.8,0.533 -1.91,0.732 -2.94,0.597c0.27,-0.583 0.41,-1.229 0.42,-1.911c0,-0.711 -0.16,-1.386 -0.46,-1.975c1.05,-0.142 2.17,0.057 2.97,0.589c1.12,0.739 1.12,1.954 0.01,2.7z" fill="currentColor"/>
<path id="Vector_82" d="M3.1628,4.0992c0.04,-0.007 0.09,-0.007 0.14,0c1.11,-0.036 1.98,-0.938 1.98,-2.046c0,-1.137 -0.92,-2.053 -2.05,-2.053c-1.13,0 -2.05,0.916 -2.05,2.053c0,1.108 0.87,2.01 1.98,2.046z" fill="currentColor"/>
<path id="Vector_83" d="M3.2328,7.7082c0,0.689 0.15,1.342 0.42,1.932c-1,0.107 -2.04,-0.106 -2.81,-0.611c-1.12,-0.746 -1.12,-1.961 0,-2.707c0.76,-0.511 1.83,-0.717 2.84,-0.603c-0.29,0.596 -0.45,1.271 -0.45,1.989z" fill="currentColor"/>
<path id="Vector_84" d="M7.1928,9.8532c-0.06,-0.007 -0.12,-0.007 -0.18,0c-1.31,-0.042 -2.36,-1.115 -2.36,-2.436c0.01,-1.35 1.1,-2.444 2.45,-2.444c1.35,0 2.45,1.094 2.45,2.444c-0.01,1.321 -1.05,2.394 -2.36,2.436z" fill="currentColor"/>
<path id="Vector_85" d="M4.8828,11.3242c-1.07,0.717 -1.07,1.897 0,2.607c1.22,0.817 3.23,0.817 4.45,0c1.07,-0.717 1.07,-1.897 0,-2.607c-1.22,-0.817 -3.22,-0.817 -4.45,0z" fill="currentColor"/>
</g></svg>