<svg viewBox="0 0 14.1879 14.544" fill="none" xmlns="http://www.w3.org/2000/svg" xmlns:xlink="http://www.w3.org/1999/xlink" x="0" y="0"><g id="people_2">
<path id="Vector_56" d="M11.0367,4.0992c-0.05,-0.007 -0.1,-0.007 -0.15,0c-1.101,-0.036 -1.975,-0.938 -1.975,-2.046c0,-1.13 0.917,-2.053 2.054,-2.053c1.129,0 2.053,0.916 2.053,2.053c-0.007,1.108 -0.881,2.01 -1.982,2.046z" fill="currentColor"/>
<path id="Vector_57" d="M13.3527,9.0222c-0.796,0.533 -1.911,0.732 -2.942,0.597c0.27,-0.583 0.412,-1.229 0.42,-1.911c0,-0.711 -0.157,-1.386 -0.455,-1.975c1.051,-0.142 2.167,0.057 2.969,0.589c1.123,0.739 1.123,1.954 0.008,2.7z" fill="currentColor"/>
<path id="Vector_58" d="M3.1577,4.0992c0.05,-0.007 0.1,-0.007 0.149,0c1.101,-0.036 1.975,-0.938 1.975,-2.046c0,-1.137 -0.916,-2.053 -2.053,-2.053c-1.129,0 -2.046,0.916 -2.046,2.053c0,1.108 0.874,2.01 1.975,2.046z" fill="currentColor"/>
<path id="Vector_59" d="M3.2357,7.7082c0,0.689 0.149,1.342 0.419,1.932c-1.001,0.107 -2.046,-0.106 -2.813,-0.611c-1.122,-0.746 -1.122,-1.961 0,-2.707c0.76,-0.511 1.833,-0.717 2.842,-0.603c-0.291,0.596 -0.448,1.271 -0.448,1.989z" fill="currentColor"/>
<path id="Vector_60" d="M7.1927,9.8532c-0.057,-0.007 -0.121,-0.007 -0.184,0c-1.308,-0.042 -2.352,-1.115 -2.352,-2.436c0.007,-1.35 1.094,-2.444 2.451,-2.444c1.35,0 2.444,1.094 2.444,2.444c-0.007,1.321 -1.044,2.394 -2.359,2.436z" fill="currentColor"/>
<path id="Vector_61" d="M4.8837,11.3242c-1.072,0.717 -1.072,1.897 0,2.607c1.222,0.817 3.226,0.817 4.448,0c1.072,-0.717 1.072,-1.897 0,-2.607c-1.215,-0.817 -3.219,-0.817 -4.448,0z" fill="currentColor"/>
</g></svg>