<svg viewBox="0 0 31 31" fill="none" xmlns="http://www.w3.org/2000/svg" xmlns:xlink="http://www.w3.org/1999/xlink" x="0" y="0"><g id="Group 427320544">
<rect id="Rectangle 1207" x="0" y="0" width="31" height="31" rx="3" fill="#FFFAE1"/>
<g id="people_9">
<g id="vuesax/bold/people_5">
<g id="people_10">
<path id="Vector_88" d="M19.43,12.495c-0.05,-0.007 -0.1,-0.007 -0.15,0c-1.1,-0.036 -1.98,-0.938 -1.98,-2.046c0,-1.13 0.92,-2.053 2.06,-2.053c1.13,0 2.05,0.916 2.05,2.053c-0.01,1.108 -0.88,2.01 -1.98,2.046z" fill="#FFD66B"/>
<path id="Vector_89" d="M21.74,17.418c-0.79,0.533 -1.91,0.732 -2.94,0.597c0.27,-0.583 0.42,-1.229 0.42,-1.911c0,-0.711 -0.15,-1.386 -0.45,-1.975c1.05,-0.142 2.16,0.057 2.97,0.589c1.12,0.739 1.12,1.954 0,2.7z" fill="#FFD66B"/>
<path id="Vector_90" d="M11.55,12.495c0.05,-0.007 0.1,-0.007 0.15,0c1.1,-0.036 1.97,-0.938 1.97,-2.046c0,-1.137 -0.91,-2.053 -2.05,-2.053c-1.13,0 -2.04,0.916 -2.04,2.053c0,1.108 0.87,2.01 1.97,2.046z" fill="#FFD66B"/>
<path id="Vector_91" d="M11.63,16.104c0,0.689 0.15,1.342 0.42,1.932c-1,0.107 -2.05,-0.106 -2.82,-0.611c-1.12,-0.746 -1.12,-1.961 0,-2.707c0.76,-0.511 1.84,-0.717 2.85,-0.603c-0.3,0.596 -0.45,1.271 -0.45,1.989z" fill="#FFD66B"/>
<path id="Vector_92" d="M15.59,18.249c-0.06,-0.007 -0.13,-0.007 -0.19,0c-1.31,-0.042 -2.35,-1.115 -2.35,-2.436c0.01,-1.35 1.09,-2.444 2.45,-2.444c1.35,0 2.44,1.094 2.44,2.444c0,1.321 -1.04,2.394 -2.35,2.436z" fill="#FFD66B"/>
<path id="Vector_93" d="M13.28,19.72c-1.08,0.717 -1.08,1.897 0,2.607c1.22,0.817 3.22,0.817 4.44,0c1.08,-0.717 1.08,-1.897 0,-2.607c-1.21,-0.817 -3.21,-0.817 -4.44,0z" fill="#FFD66B"/>
</g>
</g>
</g>
</g></svg>