<svg viewBox="0 0 13.875 16.125" fill="none" xmlns="http://www.w3.org/2000/svg" xmlns:xlink="http://www.w3.org/1999/xlink" x="0" y="0"><g id="receipt_2">
<path id="Vector_51" d="M4.1025,0.5005h5.67c1.5485,0 2.3851,0.256 2.8662,0.765c0.4895,0.518 0.7363,1.426 0.7363,3.077v8.445c0,0.761 -0.157,1.208 -0.3174,1.466c-0.1575,0.255 -0.3394,0.362 -0.459,0.411c-0.1155,0.044 -0.3101,0.088 -0.581,0.017c-0.2791,-0.073 -0.6801,-0.277 -1.1768,-0.805c-0.2537,-0.273 -0.6087,-0.468 -1.0342,-0.433c-0.3848,0.026 -0.7309,0.229 -0.9668,0.544v0.001l-0.7578,1.012l-0.0009,0.001c-0.3061,0.412 -0.7335,0.623 -1.1436,0.623c-0.4101,0 -0.8375,-0.211 -1.1436,-0.623l-0.0009,-0.001l-0.7578,-1.012v-0.001l-0.0918,-0.112c-0.2252,-0.247 -0.5258,-0.409 -0.8672,-0.432h-0.0088l-0.0078,-0.001c-0.2171,-0.007 -0.4249,0.044 -0.6123,0.139l-0.1075,-0.097c0.2138,-0.117 0.4374,-0.175 0.6573,-0.175h0.0713l0.1474,0.017c0.2949,0.051 0.5793,0.206 0.8037,0.449l0.1075,0.129l0.7578,1.012l0.0009,0.002c0.2582,0.343 0.6281,0.565 1.0479,0.565c0.4198,0 0.7897,-0.222 1.0478,-0.565l0.001,-0.002l0.7549,-1.008c0.2455,-0.322 0.5731,-0.523 0.9199,-0.582l0.1494,-0.017c0.3966,-0.021 0.8108,0.144 1.1221,0.479l0.002,0.002c0.3125,0.333 0.5963,0.547 0.8476,0.669c0.2241,0.11 0.5161,0.189 0.7793,0.081l0.002,-0.001c0.1673,-0.07 0.2813,-0.196 0.3545,-0.302c0.0772,-0.113 0.1376,-0.245 0.1836,-0.384c0.0921,-0.279 0.1445,-0.639 0.1445,-1.066v-8.445c0,-0.685 -0.0292,-1.264 -0.1221,-1.741c-0.0935,-0.48 -0.2584,-0.897 -0.5596,-1.223c-0.3047,-0.329 -0.7025,-0.514 -1.163,-0.619c-0.4526,-0.103 -0.9972,-0.135 -1.6329,-0.135h-5.6621c-0.6357,0 -1.1802,0.032 -1.6328,0.135c-0.4605,0.105 -0.8574,0.29 -1.1621,0.619c-0.3013,0.326 -0.467,0.743 -0.5605,1.223c-0.0929,0.477 -0.1221,1.056 -0.1221,1.741v8.445c0,0.431 0.0532,0.792 0.1455,1.072c0.046,0.139 0.1059,0.272 0.1846,0.385c0.0721,0.103 0.1866,0.226 0.3545,0.294v0.002c0.0024,0.001 0.0053,0.001 0.0078,0.001c0.0024,0.001 0.0044,0.003 0.0068,0.004v-0.002c0.2595,0.1 0.5445,0.024 0.7647,-0.084c0.2493,-0.121 0.5311,-0.333 0.8408,-0.662c0.1024,-0.104 0.2109,-0.19 0.3223,-0.26l-0.6065,0.667l0.0059,0.004v0.001l0.0058,0.005l0.0108,0.01c-0.3279,0.276 -0.6003,0.403 -0.8076,0.457c-0.2758,0.072 -0.4744,0.027 -0.5889,-0.018l-0.0029,-0.002c-0.1143,-0.045 -0.2942,-0.148 -0.4512,-0.402c-0.1601,-0.258 -0.3174,-0.707 -0.3174,-1.472v-8.445c0,-1.651 0.2468,-2.559 0.7363,-3.077c0.4811,-0.509 1.3177,-0.765 2.8662,-0.765z" fill="currentColor" stroke="currentColor"/>
<path id="Vector_52" d="M3.9375,4.2505h6c0.0131,0 0.0287,0.005 0.043,0.019c0.0143,0.014 0.0195,0.03 0.0195,0.043c0,0.013 -0.0052,0.029 -0.0195,0.043c-0.0143,0.014 -0.0299,0.019 -0.043,0.019h-6c-0.0131,0 -0.0287,-0.005 -0.043,-0.019c-0.0143,-0.014 -0.0195,-0.03 -0.0195,-0.043c0,-0.013 0.0052,-0.029 0.0195,-0.043c0.0143,-0.014 0.0299,-0.019 0.043,-0.019z" fill="currentColor" stroke="currentColor"/>
<path id="Vector_53" d="M4.6875,7.2505h4.5c0.0131,0 0.0287,0.005 0.043,0.019c0.0143,0.014 0.0195,0.03 0.0195,0.043c0,0.013 -0.0052,0.029 -0.0195,0.043c-0.0143,0.014 -0.0299,0.019 -0.043,0.019h-4.5c-0.0131,0 -0.0287,-0.005 -0.043,-0.019c-0.0143,-0.014 -0.0195,-0.03 -0.0195,-0.043c0,-0.013 0.0052,-0.029 0.0195,-0.043c0.0143,-0.014 0.0299,-0.019 0.043,-0.019z" fill="currentColor" stroke="currentColor"/>
</g></svg>