<svg viewBox="0 0 14.625 16.1249" fill="none" xmlns="http://www.w3.org/2000/svg" xmlns:xlink="http://www.w3.org/1999/xlink" x="0" y="0"><g id="clipboard-text_2">
<path id="Vector_26" d="M4.3125,8.1505h5.25c0.0131,0 0.0287,0.005 0.043,0.019c0.0143,0.014 0.0195,0.03 0.0195,0.043c0,0.013 -0.0052,0.029 -0.0195,0.043c-0.0143,0.014 -0.0299,0.02 -0.043,0.02h-5.25c-0.0131,0 -0.0287,-0.006 -0.043,-0.02c-0.0143,-0.014 -0.0195,-0.03 -0.0195,-0.043c0,-0.013 0.0052,-0.029 0.0195,-0.043c0.0143,-0.014 0.0299,-0.019 0.043,-0.019z" fill="currentColor" stroke="currentColor"/>
<path id="Vector_27" d="M4.3125,11.1505h3.2852c0.013,0 0.0287,0.005 0.0429,0.019c0.0143,0.014 0.0196,0.03 0.0196,0.043c0,0.013 -0.0053,0.029 -0.0196,0.043c-0.0142,0.014 -0.0299,0.019 -0.0429,0.02h-3.2852c-0.0131,0 -0.0287,-0.006 -0.043,-0.02c-0.0143,-0.014 -0.0195,-0.03 -0.0195,-0.043c0,-0.013 0.0052,-0.029 0.0195,-0.043c0.0143,-0.014 0.0299,-0.019 0.043,-0.019z" fill="currentColor" stroke="currentColor"/>
<path id="Vector_28" d="M5.8125,0.5005h3c0.3806,0 0.7538,0.011 1.042,0.185c0.2322,0.141 0.5205,0.463 0.5205,1.377c0,0.381 -0.011,0.754 -0.1855,1.042c-0.1407,0.232 -0.4625,0.52 -1.377,0.52h-3c-0.3806,0 -0.7538,-0.011 -1.042,-0.185c-0.2322,-0.141 -0.5205,-0.463 -0.5205,-1.377c0,-0.914 0.2883,-1.236 0.5205,-1.377c0.2882,-0.174 0.6614,-0.185 1.042,-0.185zM5.8125,0.6245c-0.1746,0 -0.3598,0 -0.5186,0.019c-0.162,0.019 -0.369,0.066 -0.5478,0.214c-0.1852,0.153 -0.2723,0.358 -0.3164,0.553c-0.0426,0.187 -0.0547,0.409 -0.0547,0.652c0,0.243 0.0121,0.465 0.0547,0.652c0.0441,0.195 0.1312,0.4 0.3164,0.553c0.1788,0.148 0.3858,0.195 0.5478,0.214c0.1588,0.019 0.344,0.019 0.5186,0.019h3c0.2435,0 0.4645,-0.013 0.6523,-0.055c0.1945,-0.044 0.3992,-0.131 0.5528,-0.317c0.148,-0.178 0.1945,-0.385 0.2138,-0.547c0.019,-0.159 0.0186,-0.344 0.0186,-0.519c0,-0.243 -0.0121,-0.465 -0.0547,-0.652c-0.0441,-0.195 -0.1312,-0.4 -0.3164,-0.553c-0.1788,-0.148 -0.3858,-0.195 -0.5478,-0.214c-0.1588,-0.019 -0.344,-0.019 -0.5186,-0.019z" fill="currentColor" stroke="currentColor"/>
<path id="Vector_29" d="M10.3174,2.0145c1.4528,0.079 2.3623,0.461 2.9267,1.126c0.5758,0.678 0.8809,1.752 0.8809,3.415v4.5c0,1.549 -0.2165,2.657 -0.833,3.387c-0.5998,0.711 -1.6838,1.182 -3.7295,1.182h-4.5c-2.0455,0 -3.1297,-0.471 -3.7295,-1.181c-0.6164,-0.729 -0.833,-1.836 -0.833,-3.381v-4.5c0,-1.667 0.3053,-2.742 0.8809,-3.42c0.5641,-0.665 1.4734,-1.045 2.9267,-1.12c0.0132,-0.001 0.0317,0.004 0.0479,0.018c0.0144,0.013 0.0199,0.026 0.0205,0.038c0.001,0.021 -0.0062,0.034 -0.0147,0.043c-0.0091,0.01 -0.0231,0.018 -0.0429,0.019h-0.0039c-1.0838,0.061 -2.0636,0.256 -2.7432,0.975c-0.6749,0.715 -0.9463,1.833 -0.9463,3.447v4.5c0,1.376 0.1238,2.545 0.8223,3.339c0.7138,0.812 1.8981,1.098 3.6152,1.098h4.5c1.7171,0 2.9014,-0.286 3.6152,-1.098c0.6985,-0.794 0.8223,-1.963 0.8223,-3.339v-4.5c0,-1.614 -0.2714,-2.732 -0.9463,-3.447c-0.6796,-0.719 -1.6594,-0.914 -2.7432,-0.975h-0.0039c-0.0112,-0.001 -0.0256,-0.006 -0.039,-0.021c-0.0137,-0.015 -0.0193,-0.033 -0.0186,-0.048c0.0006,-0.011 0.0064,-0.025 0.0215,-0.039c0.0151,-0.013 0.032,-0.019 0.0469,-0.018z" fill="currentColor" stroke="currentColor"/>
</g></svg>