<svg viewBox="0 0 15.6115 16.125" fill="none" xmlns="http://www.w3.org/2000/svg" xmlns:xlink="http://www.w3.org/1999/xlink" x="0" y="0"><g id="shop_2">
<path id="Vector_15" d="M14.5595,7.4155c0.0131,0 0.0287,0.005 0.043,0.019c0.0143,0.014 0.0195,0.03 0.0195,0.043v3.368c0.0037,1.791 -0.3799,2.952 -1.1005,3.673c-0.7208,0.722 -1.8808,1.106 -3.6719,1.106h-4.0498c-1.795,0 -2.9551,-0.385 -3.6758,-1.106c-0.7208,-0.722 -1.1045,-1.882 -1.1045,-3.674v-3.367c0,-0.013 0.0052,-0.029 0.0195,-0.043c0.0143,-0.014 0.0299,-0.019 0.043,-0.019c0.0131,0 0.0287,0.005 0.043,0.019c0.0143,0.014 0.0195,0.03 0.0195,0.043v3.367c0,1.569 0.2724,2.781 1.0732,3.582c0.8009,0.801 2.0135,1.074 3.5821,1.074h4.042c1.5686,0 2.7811,-0.273 3.582,-1.074c0.8008,-0.801 1.0732,-2.013 1.0732,-3.582v-3.367c0,-0.013 0.0053,-0.029 0.0196,-0.043c0.0143,-0.014 0.0299,-0.019 0.0429,-0.019z" fill="currentColor" stroke="currentColor"/>
<path id="Vector_16" d="M6.084,0.5005h3.503c0.0198,0 0.0339,0.006 0.0439,0.015c0.005,0.005 0.0099,0.01 0.0137,0.018l0.0078,0.027l0.5019,5.01c0.0687,0.688 -0.1358,1.317 -0.5673,1.8c-0.4587,0.488 -1.0748,0.754 -1.7627,0.754c-0.6909,0 -1.3029,-0.267 -1.7354,-0.749c-0.4348,-0.483 -0.6411,-1.115 -0.5723,-1.805l0.503,-5.008c0.0018,-0.017 0.0101,-0.034 0.0234,-0.046c0.0124,-0.011 0.0261,-0.016 0.041,-0.016zM6.0899,1.0755l-0.4502,4.505c-0.0662,0.633 0.1224,1.249 0.539,1.707v0.001c0.4302,0.475 1.0531,0.693 1.6456,0.693c0.5925,0 1.2162,-0.218 1.6464,-0.693l0.002,-0.002c0.4121,-0.462 0.6019,-1.075 0.5361,-1.703h0.001l-0.4502,-4.508l-0.0449,-0.451h-3.3799z" fill="currentColor" stroke="currentColor"/>
<path id="Vector_17" d="M9.5574,0.5005h2.2871c1.0405,0 1.7056,0.218 2.1475,0.616c0.3893,0.35 0.6723,0.9 0.8349,1.754l0.0625,0.384l0.208,2.068v0.001c0.0762,0.749 -0.152,1.447 -0.6308,1.975c-0.479,0.529 -1.1525,0.826 -1.9092,0.826c-1.2643,0 -2.409,-1.033 -2.541,-2.294h0.001l-0.5254,-5.257c-0.001,-0.016 0.0048,-0.038 0.0215,-0.057c0.0049,-0.005 0.0103,-0.009 0.0156,-0.012zM9.6824,1.1745l0.4649,4.643v0.002c0.1237,1.189 1.2056,2.181 2.4101,2.181c0.7018,-0.001 1.3474,-0.271 1.8145,-0.776l0.0029,-0.004c0.4626,-0.511 0.6647,-1.186 0.6006,-1.882l-0.001,-0.005l-0.21,-2.062l-0.0009,-0.008l-0.001,-0.009l-0.0498,-0.318c-0.1275,-0.722 -0.3461,-1.313 -0.792,-1.719c-0.5157,-0.468 -1.2268,-0.592 -2.0762,-0.593h-2.2178z" fill="currentColor" stroke="currentColor"/>
<path id="Vector_18" d="M3.7666,0.5005h2.2881c0.0108,0 0.031,0.004 0.0547,0.029c0.0034,0.003 0.0062,0.007 0.0078,0.012c0.0018,0.006 0.0032,0.017 0.002,0.032l-0.5245,5.255c-0.1311,1.261 -1.2752,2.296 -2.54,2.296c-0.7568,0 -1.4301,-0.297 -1.9092,-0.826c-0.479,-0.528 -0.707,-1.226 -0.6308,-1.975v-0.002l0.2002,-2.043c0.1501,-1.091 0.4587,-1.757 0.9052,-2.16c0.4427,-0.4 1.1066,-0.618 2.1465,-0.618zM3.7666,0.6245c-0.8481,0.001 -1.5601,0.122 -2.0771,0.592c-0.5106,0.465 -0.725,1.174 -0.8477,2.052l-0.0019,0.02l-0.2032,2.047c-0.0732,0.705 0.1409,1.379 0.5996,1.885c0.4622,0.51 1.1111,0.78 1.8184,0.78c1.2005,-0.001 2.2944,-0.989 2.4102,-2.183l0.4648,-4.643l0.0547,-0.55z" fill="currentColor" stroke="currentColor"/>
<path id="Vector_19" d="M9.6995,16.1245h-3.75c-0.3075,0 -0.5625,-0.255 -0.5625,-0.562v-1.875c0,-1.575 0.8625,-2.437 2.4375,-2.437c1.575,0 2.4375,0.862 2.4375,2.437v1.875c0,0.307 -0.255,0.562 -0.5625,0.562zM6.512,15.0005h2.625v-1.313c0,-0.945 -0.3675,-1.313 -1.3125,-1.313c-0.945,0 -1.3125,0.368 -1.3125,1.313z" fill="currentColor"/>
</g></svg>