<svg viewBox="0 0 16.1266 15.0076" fill="none" xmlns="http://www.w3.org/2000/svg" xmlns:xlink="http://www.w3.org/1999/xlink" x="0" y="0"><g id="sms-star_2">
<path id="Vector_48" d="M4.3125,1.6321h3.75c0.0131,0 0.0287,0.006 0.043,0.02c0.0143,0.014 0.0195,0.03 0.0195,0.043c0,0.013 -0.0052,0.029 -0.0195,0.043c-0.0143,0.014 -0.0299,0.02 -0.043,0.02h-3.75c-1.146,0 -2.0946,0.278 -2.752,0.935c-0.6573,0.657 -0.9355,1.606 -0.9355,2.752v5.25c0,1.146 0.2782,2.095 0.9355,2.752c0.6574,0.657 1.606,0.935 2.752,0.935h7.5c1.146,0 2.0946,-0.278 2.752,-0.935c0.6573,-0.657 0.9355,-1.606 0.9355,-2.752v-3c0,-0.013 0.0052,-0.029 0.0195,-0.043c0.0143,-0.014 0.0299,-0.02 0.043,-0.02c0.0131,0 0.0287,0.006 0.043,0.02c0.0143,0.014 0.0195,0.03 0.0195,0.043v3c0,1.274 -0.3649,2.211 -0.9834,2.829c-0.6185,0.619 -1.5553,0.984 -2.8291,0.984h-7.5c-1.2738,0 -2.2106,-0.365 -2.8291,-0.984c-0.6185,-0.618 -0.9834,-1.555 -0.9834,-2.829v-5.25c0,-1.274 0.3649,-2.211 0.9834,-2.829c0.6185,-0.619 1.5553,-0.984 2.8291,-0.984z" fill="currentColor" stroke="currentColor"/>
<path id="Vector_49" d="M4.3054,5.7561c0.0157,-0.002 0.027,0.002 0.0362,0.009l0.0039,0.003l2.3476,1.875c0.3895,0.312 0.8898,0.452 1.3652,0.452c0.476,0 0.9776,-0.14 1.3672,-0.453l0.002,-0.002c0.0226,-0.018 0.0564,-0.017 0.0791,0.011v0.001l0.0049,0.006c0.0091,0.011 0.0145,0.026 0.0127,0.043c-0.0018,0.016 -0.0091,0.024 -0.0166,0.03l-0.0088,0.007l-0.0078,0.007c-0.3762,0.311 -0.8954,0.477 -1.4287,0.477c-0.5323,0 -1.0531,-0.165 -1.4385,-0.479l-0.0049,-0.004l-2.3457,-1.874c-0.0148,-0.013 -0.0235,-0.03 -0.0254,-0.046c-0.0018,-0.016 0.0024,-0.027 0.0098,-0.036c0.0132,-0.016 0.0308,-0.025 0.0478,-0.027z" fill="currentColor" stroke="currentColor"/>
<path id="Vector_50" d="M12.4977,5.4011c0.2541,-0.152 0.6482,-0.152 0.9023,0l0.1856,0.111v0.001c0.2967,0.179 0.5145,0.237 0.6797,0.237h0.3818c-0.0111,0.009 -0.0213,0.018 -0.0313,0.025c-0.0601,0.044 -0.1643,0.1 -0.3222,0.107c-0.1578,0.007 -0.4126,-0.033 -0.7764,-0.251l-0.1875,-0.113l-0.0088,-0.004l-0.0654,-0.033c-0.0637,-0.026 -0.1208,-0.038 -0.1543,-0.044c-0.0543,-0.009 -0.1081,-0.012 -0.1563,-0.012c-0.0479,0 -0.1012,0.003 -0.1552,0.012c-0.0336,0.006 -0.0914,0.018 -0.1553,0.044l-0.0664,0.034l-0.1953,0.112l-0.0049,0.003c-0.2609,0.154 -0.4682,0.219 -0.6211,0.242l0.1738,-0.174c0.0034,-0.001 0.0073,-0.001 0.0108,-0.003c0.0928,-0.034 0.2137,-0.088 0.3623,-0.177h0.001l0.1953,-0.113zM15.5074,2.6641l-0.0527,-0.105c-0.0351,-0.071 -0.0794,-0.116 -0.0937,-0.131c-0.0225,-0.024 -0.0449,-0.044 -0.0655,-0.06c-0.0417,-0.033 -0.0884,-0.062 -0.1386,-0.088c-0.0505,-0.026 -0.1077,-0.049 -0.1719,-0.07l-0.2227,-0.056l-0.0068,-0.001l-0.2832,-0.045c-0.244,-0.042 -0.5266,-0.253 -0.6358,-0.475l-0.2177,-0.436l-0.1153,-0.191c-0.0391,-0.056 -0.0794,-0.105 -0.1191,-0.148c-0.0396,-0.042 -0.0825,-0.081 -0.1289,-0.114c-0.0374,-0.027 -0.1087,-0.073 -0.2041,-0.097l-0.2744,-0.068l-0.1836,0.184c-0.0065,0.005 -0.0145,0.012 -0.0235,0.02c-0.0258,0.024 -0.0566,0.055 -0.0908,0.095c-0.0686,0.08 -0.1454,0.189 -0.2168,0.337l-0.208,0.425h-0.001c-0.1084,0.221 -0.3989,0.435 -0.6396,0.476l-0.2793,0.045c-0.1658,0.026 -0.3002,0.072 -0.4072,0.128c-0.0532,0.028 -0.1016,0.06 -0.1436,0.095c-0.0207,0.017 -0.0424,0.037 -0.0635,0.06c-0.014,0.016 -0.0531,0.059 -0.0849,0.122l-0.0528,0.106v0.118c0.0001,0.076 0.0176,0.141 0.0274,0.174c0.0138,0.046 0.0332,0.095 0.0596,0.147c0.0532,0.105 0.1351,0.22 0.2548,0.34l0.2579,0.258c0.1908,0.195 0.2955,0.56 0.2392,0.817l-0.0371,0.159h-0.001l-0.0009,0.006c-0.0734,0.33 -0.0588,0.56 -0.0157,0.711l0.1094,0.384c-0.0057,-0.004 -0.0114,-0.007 -0.0166,-0.011c-0.0615,-0.044 -0.1496,-0.128 -0.207,-0.279c-0.057,-0.15 -0.0993,-0.406 -0.0059,-0.82l0.0371,-0.158h-0.001c0.0239,-0.1 0.0181,-0.188 0.0127,-0.233c-0.0065,-0.055 -0.0186,-0.106 -0.0312,-0.15c-0.0189,-0.066 -0.0623,-0.195 -0.1494,-0.3l-0.0147,-0.018l-0.0166,-0.015l-0.2597,-0.26h0.0009c-0.3566,-0.363 -0.4214,-0.702 -0.3457,-0.943c0.0665,-0.207 0.2635,-0.417 0.6465,-0.523l0.1758,-0.038l0.2793,-0.044l0.0303,-0.005l0.0293,-0.009c0.114,-0.032 0.2113,-0.098 0.2627,-0.136c0.0486,-0.037 0.1532,-0.119 0.2216,-0.239l0.0079,-0.013l0.0068,-0.014l0.2099,-0.428l-0.0009,-0.001c0.2409,-0.487 0.5497,-0.649 0.79,-0.649c0.2403,0 0.5473,0.163 0.7881,0.65l0.21,0.428l0.0019,0.003c0.0434,0.087 0.1028,0.147 0.1279,0.172c0.0339,0.033 0.0694,0.063 0.1016,0.087c0.0468,0.035 0.1489,0.106 0.2676,0.14l0.0293,0.009l0.0303,0.005l0.2783,0.044h0.0009c0.4993,0.084 0.7463,0.325 0.8223,0.561c0.0755,0.234 0.0194,0.571 -0.3418,0.94l-0.2627,0.263l-0.0166,0.015l-0.0146,0.018c-0.0872,0.105 -0.1306,0.234 -0.1494,0.3c-0.0127,0.044 -0.0247,0.095 -0.0313,0.15c-0.0053,0.044 -0.012,0.133 0.0117,0.233v0l0.0371,0.158c0.078,0.346 0.0584,0.581 0.0176,0.736l-0.082,-0.246c0.0001,-0.016 0.0015,-0.034 0.001,-0.053c-0.0028,-0.106 -0.0162,-0.246 -0.0577,-0.426l-0.0009,-0.002l-0.0362,-0.152c-0.0592,-0.264 0.044,-0.621 0.2334,-0.819l0.2627,-0.263c0.2269,-0.227 0.3408,-0.467 0.3408,-0.669z" fill="currentColor" stroke="currentColor"/>
</g></svg>