<svg viewBox="0 0 14.6231 13.8731" fill="none" xmlns="http://www.w3.org/2000/svg" xmlns:xlink="http://www.w3.org/1999/xlink" x="0" y="0"><g id="task_2">
<path id="Vector_36" d="M6.5606,12.4977h7.5c0.0131,0 0.0287,0.006 0.043,0.02c0.0143,0.014 0.0195,0.03 0.0195,0.043c0,0.013 -0.0052,0.029 -0.0195,0.043c-0.0143,0.014 -0.0299,0.02 -0.043,0.02h-7.5c-0.0131,0 -0.0287,-0.006 -0.043,-0.02c-0.0143,-0.014 -0.0195,-0.03 -0.0195,-0.043c0,-0.013 0.0052,-0.029 0.0195,-0.043c0.0143,-0.014 0.0299,-0.02 0.043,-0.02z" fill="currentColor" stroke="currentColor"/>
<path id="Vector_37" d="M6.5606,7.2477h7.5c0.0131,0 0.0287,0.006 0.043,0.02c0.0143,0.014 0.0195,0.03 0.0195,0.043c0,0.013 -0.0052,0.029 -0.0195,0.043c-0.0143,0.014 -0.0299,0.02 -0.043,0.02h-7.5c-0.0131,0 -0.0287,-0.006 -0.043,-0.02c-0.0143,-0.014 -0.0195,-0.03 -0.0195,-0.043c0,-0.013 0.0052,-0.029 0.0195,-0.043c0.0143,-0.014 0.0299,-0.02 0.043,-0.02z" fill="currentColor" stroke="currentColor"/>
<path id="Vector_38" d="M6.5606,1.9977h7.5c0.0131,0 0.0287,0.006 0.043,0.02c0.0143,0.014 0.0195,0.03 0.0195,0.043c0,0.013 -0.0052,0.029 -0.0195,0.043c-0.0143,0.014 -0.0299,0.02 -0.043,0.02h-7.5c-0.0131,0 -0.0287,-0.006 -0.043,-0.02c-0.0143,-0.014 -0.0195,-0.03 -0.0195,-0.043c0,-0.013 0.0052,-0.029 0.0195,-0.043c0.0143,-0.014 0.0299,-0.02 0.043,-0.02z" fill="currentColor" stroke="currentColor"/>
<path id="Vector_39" d="M3.5605,0.4997c0.0198,0 0.0345,0.008 0.044,0.017c0.0094,0.009 0.0165,0.024 0.0166,0.044c0,0.02 -0.0072,0.034 -0.0166,0.044l-2.25,2.25c-0.0084,0.008 -0.0152,0.012 -0.0205,0.014c-0.0059,0.003 -0.0137,0.004 -0.0235,0.004c-0.0097,0 -0.0176,-0.001 -0.0234,-0.004c-0.0053,-0.002 -0.0122,-0.006 -0.0205,-0.014l-0.75,-0.75c-0.0094,-0.01 -0.0166,-0.024 -0.0166,-0.044c0,-0.02 0.0071,-0.035 0.0166,-0.044c0.0094,-0.009 0.0242,-0.017 0.0439,-0.017c0.0198,0 0.0345,0.008 0.044,0.017l0.706,0.706l2.2061,-2.206c0.0094,-0.009 0.0242,-0.017 0.0439,-0.017z" fill="currentColor" stroke="currentColor"/>
<path id="Vector_40" d="M1.3106,8.6227c-0.1425,0 -0.285,-0.052 -0.3975,-0.165l-0.75,-0.75c-0.2175,-0.217 -0.2175,-0.577 0,-0.795c0.2175,-0.217 0.5775,-0.217 0.795,0l0.3525,0.353l1.8525,-1.853c0.2175,-0.217 0.5775,-0.217 0.795,0c0.2175,0.218 0.2175,0.578 0,0.795l-2.25,2.25c-0.1125,0.113 -0.255,0.165 -0.3975,0.165z" fill="currentColor"/>
<path id="Vector_41" d="M1.3106,13.8727c-0.1425,0 -0.285,-0.052 -0.3975,-0.165l-0.75,-0.75c-0.2175,-0.217 -0.2175,-0.577 0,-0.795c0.2175,-0.217 0.5775,-0.217 0.795,0l0.3525,0.353l1.8525,-1.853c0.2175,-0.217 0.5775,-0.217 0.795,0c0.2175,0.218 0.2175,0.578 0,0.795l-2.25,2.25c-0.1125,0.113 -0.255,0.165 -0.3975,0.165z" fill="currentColor"/>
</g></svg>