<svg viewBox="0 0 15.4725 15.975" fill="none" xmlns="http://www.w3.org/2000/svg" xmlns:xlink="http://www.w3.org/1999/xlink" x="0" y="0"><g id="profile-2user_2">
<path id="Vector_5" d="M5.5501,0.5005c1.8105,0 3.2967,1.43 3.3877,3.218l0.0049,0.174c-0.0075,1.841 -1.4469,3.326 -3.2666,3.385h-0.0352c-0.0542,-0.006 -0.1087,-0.005 -0.1601,-0.001c-1.9032,-0.064 -3.3233,-1.553 -3.3233,-3.384c0,-1.869 1.5237,-3.392 3.3926,-3.392zM5.5501,0.6245c-1.7987,0 -3.2676,1.469 -3.2676,3.268c0,1.769 1.3834,3.198 3.1445,3.26l0.0508,0.002l0.0391,-0.008c0.0059,0 0.0154,0 0.0283,0c0.0285,0 0.0646,0.002 0.1016,0.005l0.0302,0.002l0.0313,-0.001c1.7382,-0.08 3.1003,-1.509 3.1094,-3.257v-0.003c0,-1.799 -1.469,-3.267 -3.2676,-3.268z" fill="currentColor" stroke="currentColor"/>
<path id="Vector_6" d="M10.9828,7.3235c-0.0036,-0.039 0.0072,-0.062 0.0127,-0.07c0.0026,-0.003 0.0048,-0.004 0.0049,-0.004l0.002,-0.001l0.001,-0.001c0.0629,-0.005 0.1355,-0.005 0.2168,-0.005h0.0273c1.36,-0.075 2.4228,-1.195 2.4228,-2.563c-0.0001,-1.416 -1.1466,-2.562 -2.5625,-2.562h-0.0126c-0.0089,0 -0.0203,-0.003 -0.0323,-0.015c-0.0123,-0.012 -0.0176,-0.027 -0.0176,-0.04c0,-0.013 0.0053,-0.029 0.0196,-0.043c0.0142,-0.014 0.0299,-0.019 0.0429,-0.019c1.4788,0 2.6875,1.208 2.6875,2.687c0,1.447 -1.1235,2.615 -2.5615,2.685l-0.039,-0.013l-0.1055,0.011c-0.0238,0.002 -0.0584,-0.006 -0.0859,-0.027c-0.0129,-0.009 -0.0185,-0.017 -0.0206,-0.02z" fill="currentColor" stroke="currentColor"/>
<path id="Vector_7" d="M5.6836,8.8905c1.308,0 2.5916,0.312 3.5859,0.911l0.1954,0.124c0.9317,0.621 1.3906,1.426 1.3906,2.247c-0.0002,0.824 -0.454,1.634 -1.3906,2.261c-1.0267,0.684 -2.3945,1.041 -3.7872,1.041c-1.3935,0 -2.7682,-0.357 -3.7861,-1.04l-0.0029,-0.002l-0.1699,-0.118c-0.8212,-0.602 -1.2188,-1.355 -1.2188,-2.127c0,-0.824 0.4526,-1.636 1.3897,-2.263c1.0264,-0.68 2.3991,-1.034 3.7939,-1.034zM5.6777,9.0215c-1.3273,0 -2.6848,0.328 -3.7197,1.018c-0.8081,0.538 -1.333,1.29 -1.333,2.156c0.0001,0.859 0.5346,1.609 1.3311,2.138v0.001c1.0351,0.695 2.3937,1.025 3.7216,1.025c1.3274,0 2.6839,-0.331 3.7188,-1.025l0.001,0.001c0.808,-0.538 1.333,-1.291 1.333,-2.156c-0.0002,-0.861 -0.5368,-1.612 -1.335,-2.141c-1.0346,-0.69 -2.3912,-1.017 -3.7178,-1.017z" fill="currentColor" stroke="currentColor"/>
<path id="Vector_8" d="M12.555,14.6255c-0.2625,0 -0.495,-0.18 -0.5475,-0.45c-0.06,-0.308 0.135,-0.6 0.435,-0.668c0.4725,-0.097 0.9075,-0.285 1.245,-0.547c0.4275,-0.323 0.66,-0.728 0.66,-1.155c0,-0.428 -0.2325,-0.833 -0.6525,-1.148c-0.33,-0.255 -0.7425,-0.435 -1.23,-0.547c-0.3,-0.068 -0.495,-0.368 -0.4275,-0.675c0.0675,-0.3 0.3675,-0.495 0.675,-0.428c0.645,0.143 1.2075,0.398 1.665,0.75c0.6975,0.525 1.095,1.268 1.095,2.048c0,0.78 -0.405,1.522 -1.1025,2.055c-0.465,0.36 -1.05,0.622 -1.695,0.75c-0.045,0.015 -0.0825,0.015 -0.12,0.015z" fill="currentColor"/>
</g></svg>