<svg viewBox="0 0 15.7725 16.1249" fill="none" xmlns="http://www.w3.org/2000/svg" xmlns:xlink="http://www.w3.org/1999/xlink" x="0" y="0"><g id="wallet-minus_2">
<path id="Vector_20" d="M6.0075,11.0004h3.75c0.0131,0 0.0287,0.005 0.043,0.019c0.0143,0.014 0.0195,0.03 0.0195,0.043c0,0.013 -0.0052,0.029 -0.0195,0.043c-0.0143,0.014 -0.0299,0.019 -0.043,0.019h-3.75c-0.0131,0 -0.0287,-0.005 -0.043,-0.019c-0.0143,-0.014 -0.0195,-0.03 -0.0195,-0.043c0,-0.013 0.0052,-0.029 0.0195,-0.043c0.0143,-0.014 0.0299,-0.019 0.043,-0.019z" fill="currentColor" stroke="currentColor"/>
<path id="Vector_21" d="M5.9223,0.6754c0.629,-0.277 1.4566,-0.242 2.6592,0.219l0.0058,0.002c0.0034,0.001 0.0172,0.008 0.0274,0.032c0.0072,0.017 0.0071,0.034 0.0009,0.051l-2.1953,5.095c-0.0112,0.025 -0.0367,0.041 -0.0605,0.041h-2.1377c-0.4942,0 -0.9655,0.095 -1.417,0.286l-0.0078,0.004c0,0 -0.0016,0 -0.0039,0.001c-0.0029,0 -0.0066,0.001 -0.0108,0.001c-0.0021,0 -0.0207,-0.003 -0.0468,-0.025c-0.0049,-0.006 -0.0114,-0.014 -0.0137,-0.026c-0.0029,-0.014 0.0001,-0.026 0.0029,-0.032l0.001,-0.004l1.3955,-3.33l-0.001,-0.001c0.0076,-0.017 0.0149,-0.033 0.0205,-0.046c0.0078,-0.019 0.0109,-0.026 0.0157,-0.037c0.0075,-0.018 0.0071,-0.016 0.0019,-0.007l0.0147,-0.022l0.0127,-0.031c0.5367,-1.236 1.1019,-1.891 1.7363,-2.171zM6.8402,0.6254c-0.5948,0 -1.0958,0.202 -1.5224,0.618c-0.4043,0.394 -0.7256,0.964 -1.0293,1.672l-0.0088,0.019c-0.0028,0.006 -0.0063,0.013 -0.0098,0.021c-0.0036,0.008 -0.0078,0.018 -0.0127,0.03h-0.0009l-0.9825,2.333l-0.3232,0.768l0.8301,-0.076c0.1504,-0.013 0.2925,-0.02 0.4414,-0.02h2.0918l0.1308,-0.303l1.8067,-4.2l0.2187,-0.506l-0.5254,-0.168c-0.3911,-0.125 -0.758,-0.188 -1.1045,-0.188z" fill="currentColor" stroke="currentColor"/>
<path id="Vector_22" d="M8.8066,0.9854v0.001l1.7696,0.742l0.0029,0.001c0.9996,0.413 1.6053,0.824 1.9815,1.276l0.0048,0.005c0.0649,0.076 0.1241,0.163 0.1836,0.262l0.0039,0.007l0.0049,0.007c0.0579,0.089 0.1151,0.208 0.1553,0.329l0.0068,0.019l0.0078,0.02c0.0157,0.036 0.0406,0.101 0.0537,0.163l0.004,0.019l0.0058,0.019c0.1629,0.548 0.1009,1.295 -0.3262,2.367c-0.0045,0.011 -0.0126,0.022 -0.0253,0.031c-0.013,0.008 -0.0277,0.011 -0.0401,0.011c-0.0032,0 -0.0089,0 -0.0156,-0.001c-0.0037,0 -0.0069,-0.001 -0.0088,-0.002c-0.3247,-0.096 -0.6795,-0.146 -1.04,-0.146h-5.1748c-0.0156,0 -0.0364,-0.011 -0.0508,-0.027c-0.0053,-0.011 -0.0106,-0.023 -0.0117,-0.035c-0.0014,-0.014 0.0014,-0.024 0.0029,-0.027l0.001,-0.001l2.1748,-5.048l0.0029,-0.005c0.0075,-0.018 0.0289,-0.045 0.0635,-0.063c0.0225,-0.012 0.0365,-0.013 0.042,-0.013c0.064,0.022 0.1168,0.045 0.2216,0.089zM8.3984,1.4824l-1.6425,3.81l-0.3008,0.698h5.0879c0.2082,0 0.4135,0.019 0.625,0.054l0.4238,0.068l0.1318,-0.409c0.2228,-0.692 0.3004,-1.31 0.1387,-1.856h-0.0019c-0.0096,-0.038 -0.0173,-0.069 -0.0254,-0.093l-0.0069,-0.021l-0.0049,-0.02l-0.0097,-0.027l-0.0723,-0.177c-0.025,-0.055 -0.0524,-0.108 -0.0849,-0.16l-0.002,-0.003l-0.0762,-0.121c-0.0306,-0.046 -0.0687,-0.097 -0.1113,-0.146h0.001c-0.0026,-0.003 -0.0062,-0.006 -0.0088,-0.009c-0.0012,-0.001 -0.0017,-0.004 -0.0029,-0.005h-0.001c-0.3521,-0.419 -0.8979,-0.774 -1.6065,-1.091l-0.3173,-0.136l-1.4805,-0.62l-0.4561,-0.191z" fill="currentColor" stroke="currentColor"/>
<path id="Vector_23" d="M4.2302,5.9894h7.3203c0.3808,0.001 0.7423,0.054 1.0722,0.158l0.0049,0.001c1.5515,0.468 2.6445,1.94 2.6445,3.564v1.462c0,0.15 -0.0062,0.296 -0.0136,0.445c-0.0774,1.375 -0.5111,2.355 -1.2198,2.995c-0.7123,0.645 -1.7736,1.01 -3.2314,1.01h-5.8496c-0.1856,0 -0.3609,-0.013 -0.543,-0.034l-0.0234,-0.002c-1.2281,-0.084 -2.1348,-0.471 -2.7549,-1.094c-0.6204,-0.623 -1.0086,-1.538 -1.0928,-2.783l-0.0009,-0.017l-0.002,-0.017l-0.0244,-0.237c-0.0058,-0.086 -0.0088,-0.176 -0.0088,-0.266v-1.462c0,-1.486 0.8844,-2.829 2.2549,-3.426c0.4607,-0.197 0.956,-0.297 1.4678,-0.297zM4.2223,6.1144c-0.4942,0.001 -0.9653,0.097 -1.4169,0.288l-0.0049,0.002c-1.3215,0.574 -2.1758,1.871 -2.1758,3.308v1.462c0,0.179 0.0168,0.353 0.0312,0.498v0.001c0.0761,1.14 0.4,2.069 1.0577,2.732c0.6531,0.657 1.5668,0.981 2.6816,1.06v0.001c0.1904,0.023 0.3655,0.041 0.5547,0.041h5.8506c1.3012,0 2.3652,-0.285 3.1211,-0.962c0.7613,-0.682 1.1231,-1.683 1.1875,-2.923c0.0074,-0.133 0.0156,-0.282 0.0156,-0.448v-1.462c0,-1.579 -1.052,-2.987 -2.5498,-3.448l-0.0049,-0.001l-0.249,-0.065c-0.2543,-0.055 -0.5228,-0.084 -0.794,-0.084z" fill="currentColor" stroke="currentColor"/>
<path id="Vector_24" d="M0.5625,10.2744c-0.3075,0 -0.5625,-0.255 -0.5625,-0.562v-2.198c0,-2.362 1.6725,-4.402 3.9825,-4.852c0.2025,-0.038 0.4125,0.037 0.5475,0.195c0.1275,0.157 0.165,0.382 0.0825,0.57l-1.3125,3.135c-0.06,0.135 -0.165,0.24 -0.2925,0.3c-1.14,0.495 -1.875,1.612 -1.875,2.85c-0.0075,0.307 -0.255,0.562 -0.57,0.562zM3.0825,4.1774c-0.96,0.54 -1.6575,1.485 -1.875,2.587c0.33,-0.337 0.7125,-0.622 1.1475,-0.832z" fill="currentColor"/>
<path id="Vector_25" d="M15.2025,10.2744c-0.3075,0 -0.5625,-0.255 -0.5625,-0.562c0,-1.358 -0.9075,-2.573 -2.1975,-2.97c-0.15,-0.045 -0.2775,-0.15 -0.345,-0.293c-0.0675,-0.142 -0.075,-0.307 -0.015,-0.45c0.3525,-0.877 0.4425,-1.515 0.3,-2.01c-0.015,-0.067 -0.03,-0.097 -0.0375,-0.127c-0.0975,-0.218 -0.045,-0.473 0.1275,-0.638c0.1725,-0.165 0.435,-0.202 0.645,-0.09c1.635,0.855 2.6475,2.535 2.6475,4.38v2.198c0,0.307 -0.255,0.562 -0.5625,0.562zM13.32,5.8794c0.4725,0.218 0.8925,0.525 1.245,0.893c-0.1425,-0.735 -0.495,-1.403 -1.0125,-1.928c-0.0375,0.315 -0.1125,0.66 -0.2325,1.035z" fill="currentColor"/>
</g></svg>